PathFileType	4	(X/Y/Z)	./resultDataOpenSim/trcMotMarkerGrf/sub10/qtm-04-05.trc
DataRate	CameraRate	NumFrames	NumMarkers	Units	OrigDataRate	OrigDataStartFrame	OrigNumFrames
250.000000	250.000000	14	24	m	250.000000	247	493
Frame#	Time	L.Toe.Tip			R.Toe.Tip			L.Ankle.Lat			R.Ankle.Lat			L.Ankle.Med			R.Ankle.Med			L.Heel			R.Heel			L.Knee.Lat			R.Knee.Lat			L.Knee.Med			R.Knee.Med			L.Thigh.Upper			R.Thigh.Upper			L.ASIS			R.ASIS			V.Sacral			L.Acromium			R.Acromium			C7			L.Elbow			R.Elbow			L.Wrist.Lat			R.Wrist.Lat
		X1	Y1	Z1	X2	Y2	Z2	X3	Y3	Z3	X4	Y4	Z4	X5	Y5	Z5	X6	Y6	Z6	X7	Y7	Z7	X8	Y8	Z8	X9	Y9	Z9	X10	Y10	Z10	X11	Y11	Z11	X12	Y12	Z12	X13	Y13	Z13	X14	Y14	Z14	X15	Y15	Z15	X16	Y16	Z16	X17	Y17	Z17	X18	Y18	Z18	X19	Y19	Z19	X20	Y20	Z20	X21	Y21	Z21	X22	Y22	Z22	X23	Y23	Z23	X24	Y24	Z24

247	0.984	0.09688388	-0.031921477	-0.13261335	0.27778178	0.084535997	0.045707589	-0.033589346	0.007891141	-0.17732127	0.15078673	0.14719161	0.018603811	-0.032829284	0.033631465	-0.09739912	0.21274752	0.15480735	-0.04674054	-0.10321728	-0.011949986	-0.13925177	0.11995039	0.13012411	-0.045164656	0.059650459	0.38586467	-0.21326537	0.33109164	0.48638018	0.079005895	0.053585705	0.36792512	-0.091702826	0.38487696	0.49885012	-0.041052027	0.11837559	0.77940021	-0.27558762	0.10489087	0.81561549	0.10357057	0.17810517	0.88681945	-0.21109993	0.16972969	0.90447688	0.028621282	-0.0087400918	0.90823539	-0.10428226	0.13086459	1.3646667	-0.25263359	0.1058873	1.3736339	0.066275368	0.041365216	1.3962787	-0.10884045	0.055811902	1.0303663	-0.33444304	-0.019533278	1.0482509	0.088288984	0.21984256	0.84633687	-0.34944404	0.051847066	0.8297059	0.1735676
248	0.988	0.096827088	-0.031929991	-0.13263408	0.29817652	0.084200777	0.047098936	-0.033625418	0.0081802177	-0.1770805	0.16921921	0.14263297	0.020046763	-0.03246832	0.034070522	-0.097225358	0.23062689	0.15172477	-0.045712951	-0.10314515	-0.011326387	-0.1387659	0.13888662	0.12434665	-0.044067217	0.059614881	0.38613705	-0.21329789	0.33956347	0.48833624	0.07818676	0.05409783	0.36819102	-0.091566675	0.39195265	0.50167859	-0.041973667	0.12034305	0.7796191	-0.27603646	0.11186798	0.81679144	0.10411799	0.18166105	0.88686533	-0.21190469	0.17543308	0.90490264	0.028098693	-0.0040808739	0.9088809	-0.1023269	0.13608993	1.3648947	-0.25248322	0.11160249	1.3736799	0.06639462	0.046925126	1.3965314	-0.10859169	0.06421641	1.0297804	-0.33432869	-0.017216229	1.0496411	0.088472792	0.23132878	0.84825093	-0.3467847	0.052459894	0.83093045	0.17494611
249	0.992	0.096793033	-0.031922176	-0.13268196	0.31849918	0.084001784	0.048413624	-0.033669128	0.008496524	-0.17684119	0.18767569	0.13821579	0.021608056	-0.032147464	0.034518263	-0.096959852	0.24857658	0.14872228	-0.044635129	-0.10307512	-0.010728596	-0.13821174	0.15791689	0.1187506	-0.042943588	0.059687194	0.386409	-0.21322355	0.34785498	0.49013303	0.077373081	0.05451133	0.36832442	-0.091248195	0.39883952	0.50425497	-0.042911751	0.12240817	0.77977421	-0.27644646	0.11909855	0.81794427	0.10481124	0.18524325	0.88684293	-0.21271196	0.18113056	0.90521025	0.027610629	0.00061437463	0.9094302	-0.1003363	0.14132882	1.3650366	-0.2523225	0.11731396	1.3736443	0.066509053	0.052484389	1.3966851	-0.10834848	0.072646943	1.0291335	-0.33419041	-0.014789095	1.0509499	0.088645623	0.24276744	0.85018825	-0.34411774	0.053159142	0.83211352	0.17633581
250	0.996	0.096759784	-0.031911388	-0.13273033	0.33874464	0.083922253	0.049623072	-0.033684565	0.0088532261	-0.17661614	0.20623534	0.13392582	0.023176351	-0.031859427	0.034995953	-0.096587157	0.26659839	0.14589168	-0.043518831	-0.10300928	-0.010142983	-0.13757923	0.17698714	0.11329126	-0.041606566	0.059743093	0.38669794	-0.21315041	0.35598411	0.49178606	0.076591791	0.054952112	0.36831711	-0.090876942	0.40555045	0.50657014	-0.043857111	0.12455337	0.77986884	-0.27676652	0.12642821	0.81903542	0.10557053	0.18881786	0.88673457	-0.21351818	0.18683348	0.90540447	0.027148453	0.0053698038	0.90985888	-0.09833661	0.14658452	1.3650923	-0.25216332	0.12301108	1.3735271	0.066622141	0.058044846	1.396746	-0.10810856	0.08106075	1.0284083	-0.3340229	-0.012311244	1.0522042	0.088832708	0.25416274	0.85214851	-0.34144666	0.053886698	0.83324711	0.1777134
251	1	0.096708281	-0.031907053	-0.13275674	0.35894059	0.08391525	0.050694883	-0.033660092	0.0092217283	-0.17637735	0.22494219	0.12974007	0.024714922	-0.031579847	0.035473065	-0.096136611	0.28468456	0.14324907	-0.042407235	-0.10294844	-0.0095671977	-0.13687815	0.19608684	0.10796466	-0.040036057	0.059761588	0.38702155	-0.21310088	0.36397649	0.49327502	0.07585901	0.055524486	0.36821835	-0.090626453	0.41209506	0.50860781	-0.044800551	0.12677927	0.7799029	-0.27696334	0.13345559	0.81995797	0.10618005	0.19232067	0.88651885	-0.21432794	0.19254773	0.90549072	0.026699225	0.010187362	0.91015604	-0.096335782	0.15184597	1.3650515	-0.25201052	0.12868606	1.3733253	0.06673598	0.063595544	1.3967153	-0.10787308	0.089437071	1.0275981	-0.33382034	-0.0098221033	1.0534172	0.089046124	0.26551301	0.85413017	-0.3387804	0.054588773	0.83432522	0.17904545
252	1.004	0.096636844	-0.031910373	-0.13275894	0.37912791	0.083933287	0.051609772	-0.033642711	0.0095792129	-0.17606806	0.24380492	0.12564985	0.026213433	-0.031278391	0.035895021	-0.095664546	0.30280734	0.14074859	-0.041325609	-0.10289729	-0.0090057824	-0.13612902	0.21523603	0.10281098	-0.038343876	0.05978164	0.38737793	-0.21305523	0.37182368	0.49454504	0.075158095	0.05627545	0.36811338	-0.090612584	0.418478	0.51035113	-0.045729897	0.12907814	0.77986216	-0.27699863	0.13995245	0.82064368	0.1065144	0.19573867	0.88618333	-0.21513271	0.19827423	0.90547563	0.026254151	0.015155927	0.91028863	-0.094453603	0.15709108	1.3648992	-0.25186149	0.13434239	1.3730361	0.066846217	0.069121785	1.3965876	-0.10765039	0.097782092	1.0267064	-0.33358779	-0.0073107369	1.0545797	0.089277857	0.27680995	0.85612744	-0.33613402	0.055235323	0.83534693	0.18031564
253	1.008	0.09656565	-0.031915516	-0.13275587	0.39931991	0.08396794	0.052371077	-0.03369385	0.0099217065	-0.17565055	0.26285152	0.12164564	0.027610619	-0.030948185	0.036237551	-0.095195248	0.32092855	0.13836168	-0.040273143	-0.10285705	-0.0084654009	-0.13534531	0.23445288	0.097873611	-0.036636424	0.059869801	0.38771514	-0.2129894	0.37950469	0.4955567	0.07446802	0.057171267	0.36805392	-0.090783973	0.42471548	0.51179308	-0.046631271	0.13134439	0.77971211	-0.27685314	0.14605081	0.82111626	0.10664416	0.19917591	0.88575383	-0.21588655	0.20402043	0.90536609	0.025815172	0.020432492	0.91023341	-0.092923274	0.16230777	1.3646298	-0.25171932	0.13999266	1.3726617	0.066948665	0.074617657	1.3963566	-0.10744564	0.10610894	1.0257439	-0.33334058	-0.0047514441	1.0556774	0.089515584	0.28804951	0.85813589	-0.33351807	0.055857887	0.8363188	0.18153816
254	1.012	0.096512995	-0.031918589	-0.13276223	0.41949102	0.084041388	0.052992262	-0.033838034	0.010248443	-0.17512059	0.28208094	0.11773791	0.028859673	-0.030605695	0.036516308	-0.094713993	0.33901986	0.13610512	-0.039241885	-0.10282248	-0.0079493984	-0.13452582	0.25373644	0.093173831	-0.034960956	0.060086207	0.38795327	-0.21289194	0.38702432	0.4963114	0.073796874	0.058136106	0.36802734	-0.090974189	0.43084477	0.51292599	-0.047493553	0.13343379	0.77942101	-0.27652028	0.15202945	0.8214415	0.10671815	0.202783	0.88528909	-0.21652633	0.20979824	0.90516328	0.025388441	0.02610376	0.91005861	-0.091871976	0.1675121	1.3642497	-0.25159571	0.14564336	1.3722099	0.067042566	0.080088294	1.3960212	-0.10725205	0.1144218	1.0247195	-0.33309143	-0.0021304838	1.0567015	0.089755896	0.29924111	0.86015826	-0.3309261	0.056553795	0.83724506	0.18274733
255	1.016	0.096471141	-0.031923835	-0.13276834	0.43959732	0.084173985	0.053477182	-0.034048401	0.010547268	-0.17449619	0.30138875	0.11398778	0.030022339	-0.030273092	0.036759251	-0.094200259	0.3570654	0.134005	-0.038230565	-0.10279028	-0.0074548762	-0.1336635	0.27306225	0.088719101	-0.033327379	0.060453838	0.38805663	-0.21275783	0.39440592	0.49682823	0.073169468	0.059127865	0.36798352	-0.091040036	0.43690864	0.51373721	-0.048312755	0.1353378	0.77898757	-0.27599231	0.15807922	0.82166485	0.10683345	0.2066114	0.88483143	-0.21702853	0.21561517	0.90486171	0.024973957	0.032067812	0.90989885	-0.091062188	0.17273401	1.3637651	-0.25149585	0.15128568	1.3716853	0.067125574	0.08554323	1.3955858	-0.107059	0.12272234	1.0236318	-0.33284663	0.00056096027	1.0576487	0.090012648	0.31040144	0.86219958	-0.32834387	0.057402704	0.83811445	0.1839652
256	1.02	0.09642122	-0.031936919	-0.13275729	0.45959227	0.084373983	0.053819183	-0.034243139	0.010800611	-0.17383771	0.32064835	0.11046109	0.031200122	-0.029967237	0.036986594	-0.093642473	0.37504972	0.13207747	-0.037242966	-0.10276635	-0.0069750379	-0.13276104	0.29239102	0.084517011	-0.031744516	0.060965741	0.38805666	-0.21258011	0.40166488	0.49711814	0.072600823	0.060161705	0.36787985	-0.090924015	0.44292074	0.51422555	-0.04908849	0.13728532	0.77844737	-0.27527674	0.16424861	0.82179803	0.10700792	0.21055335	0.88436038	-0.21744861	0.22147164	0.90445735	0.024562205	0.037906866	0.9098209	-0.089918464	0.17798648	1.3631764	-0.25141049	0.15690961	1.3710852	0.06719524	0.090987149	1.3950558	-0.10686582	0.13102108	1.0224759	-0.33261336	0.0033400166	1.0585197	0.090320798	0.32154677	0.8642619	-0.32575963	0.058400676	0.83891071	0.18518856
257	1.024	0.096355497	-0.031958065	-0.13272444	0.47943925	0.084643537	0.054013275	-0.034317423	0.01100618	-0.17324642	0.33984261	0.10716423	0.032409348	-0.029687981	0.037204999	-0.093043364	0.39295419	0.13034085	-0.036286646	-0.10275886	-0.006504504	-0.13183142	0.31168344	0.080573394	-0.030230411	0.061607717	0.38800279	-0.21235576	0.40880653	0.49718393	0.072093319	0.061271706	0.36772076	-0.090648048	0.44884364	0.51439861	-0.049811894	0.13955931	0.77784822	-0.27445568	0.17050282	0.82183425	0.10721621	0.21442493	0.88380374	-0.21789224	0.22736123	0.90395363	0.024138456	0.042986523	0.90977946	-0.087964796	0.18325828	1.3624823	-0.25132979	0.16251893	1.3704085	0.067254419	0.096416919	1.3944349	-0.10668218	0.13932989	1.0212504	-0.332399	0.0062272669	1.0593135	0.09071099	0.33268603	0.86634587	-0.32316603	0.059495856	0.83963073	0.18640858
258	1.028	0.096276105	-0.031984391	-0.1326727	0.49912315	0.084990741	0.054056792	-0.034247367	0.011189731	-0.17276162	0.35901771	0.10406781	0.033594578	-0.029409594	0.037409193	-0.092423188	0.41075591	0.12880596	-0.035381442	-0.10276538	-0.0060424981	-0.13088358	0.33090299	0.076881848	-0.028793096	0.062351987	0.38792133	-0.21208313	0.41583997	0.4970307	0.071641259	0.06246488	0.36756303	-0.090276597	0.45461262	0.51425261	-0.050464811	0.14220634	0.77721357	-0.27370133	0.17679351	0.8217591	0.10742988	0.2181373	0.88310811	-0.21841389	0.23327673	0.90335818	0.02369309	0.046941931	0.90968337	-0.085289658	0.18852785	1.3616829	-0.25125982	0.16812248	1.3696585	0.067307897	0.10182897	1.3937256	-0.10651639	0.14764868	1.0199537	-0.33220371	0.0092270353	1.0600222	0.091156306	0.34380473	0.86845036	-0.32057407	0.060644848	0.84028188	0.18762259
259	1.032	0.096188005	-0.032014166	-0.13260528	0.51864698	0.085438583	0.053940816	-0.034133543	0.011390185	-0.17229492	0.37814419	0.10116768	0.034711547	-0.02909039	0.037595527	-0.091793228	0.42842295	0.12745247	-0.034559765	-0.10277329	-0.005590121	-0.12991689	0.35000696	0.0734186	-0.027406918	0.063156036	0.38781833	-0.2117447	0.42278556	0.49666612	0.071235157	0.063720239	0.3674724	-0.089867844	0.46019655	0.5137788	-0.051036065	0.14506715	0.77654156	-0.27316073	0.18308686	0.82155244	0.10763153	0.22176716	0.88228207	-0.21896305	0.23921938	0.90268099	0.02322952	0.049837196	0.90946299	-0.082422526	0.19378195	1.3607799	-0.25121656	0.17372014	1.3688399	0.067357191	0.107227	1.3929338	-0.10636843	0.15596889	1.0185821	-0.33202346	0.012314796	1.0606322	0.091565323	0.35486662	0.87057066	-0.31801269	0.0618255	0.84086973	0.18882926
260	1.036	0.096096398	-0.032048073	-0.13252553	0.53800924	0.086027524	0.053656885	-0.034083523	0.011626658	-0.17174033	0.39710871	0.09848981	0.035751605	-0.02869824	0.037781262	-0.09111653	0.44591488	0.12624008	-0.033852205	-0.10277337	-0.005146463	-0.12893263	0.36894734	0.07014699	-0.026008083	0.063995867	0.38769728	-0.21130926	0.42967064	0.49609254	0.070877178	0.0650305	0.36747069	-0.089455929	0.46565067	0.51298964	-0.051537737	0.14801205	0.77583212	-0.27284293	0.18936661	0.82119717	0.1078128	0.2254286	0.88136346	-0.2194628	0.2452038	0.90193852	0.022763321	0.051819366	0.90911901	-0.07975195	0.1990315	1.359779	-0.25120322	0.17930926	1.367955	0.067401343	0.11261951	1.3920671	-0.10623331	0.16428366	1.0171336	-0.33185925	0.015435458	1.0611365	0.091851121	0.36584591	0.87270168	-0.31549883	0.063030856	0.84139226	0.1900268
